10 KEY(1) ON: ON KEY(1) GOSUB 1310
20 KEY OFF: COLOR 12
30 CLS :
170 PLAY "L16T162O2MNB4P8MSBBMNB4P8MSBBB8G#8E8"
180 PLAY "G#8B8G#8B8>E8<B8G#8E8G#8B8G#8B8>E8<"
190 PLAY "MNB4P8MSBBMNB4P8MSBBMNB4P8MSBBMNB4P8"
200 PLAY "MSBBB8BBB8B8B8BBB8B8B8BBB8"
210 PLAY "B8B8BBB8B8MLB1.P3MS<BBB8BBB8"
220 PLAY "BB>E8F#8G#8<BBB8BB>E8G#"
230 PLAY "G#F#8D#8<B8BBB8BBB8BB>E8"
240 PLAY "F#8G#8EG#MLB2MSAG#F#E8G#8E8>BB"
250 PLAY "B8BBB8BB>E8F#8G#8<BBB8B"
260 PLAY "B>E8G#G#F#8D#8<B8BBB8BBB8BB>"
270 PLAY "E8F#8G#8MLEG#B2AG#F#MSE8G#8E3<G#G#"
280 PLAY "G#8G#G#G#8G#G#G#8>C#8<G#8>C#8<G#8>"
290 PLAY "C#8<G#8F#8E8D#8C#8G#G#G#8G#G#G#8G#"
300 PLAY "G#G#8>C#8<G#8>C#8<G#8>C#8<B8A#8B8"
310 PLAY "A#8B8G#G#G#8G#G#G#8G#G#G#8>C#8<G#8"
320 PLAY ">C#8<G#8>C#8<G#8F#8"
330 PLAY "E8D#8C#8G#G#G#8G#G#G#8G#G#G#8>C#8<"
340 PLAY "G#8>C#8<G#8>C#8<B8A#8B8<BBB8F#F#F#8"
350 PLAY "F#F#F#8G#8A8F#4MNA8MSG#8MNE4MSG#8F#8"
360 PLAY "F#8F#8>F#F#F#8F#F#F#8G#8A8MNF#4MSA8"
370 PLAY "G#8MNE4MSG#8F#8<BBB8<BBB8BBB8BB>E8"
380 PLAY "F#8G#8<BBB8BB>E8G#G#F#8D#8<B8"
390 PLAY "BBB8BBB8BB>E8F#8MSG#8MLEG#B2"
400 PLAY "MSAG#F#E8G#8E8>BBB8BBB8B"
410 PLAY "B>E8F#8G#8<BBB8BB>E8G#G#F#8"
420 PLAY "D#8<B8BBB8BBB8BB>E8F#8MSG#8"
430 PLAY "MLEG#B2MNAG#F#MSE8G#8E8P8O3"
440 PLAY "MLE56F56G56A56B56>C56D56MNE8"
450 PLAY "EEE8E8G#4.F#8E8D#8E8C#8O3B>C#<B>"
460 PLAY "C#<B>C#D#E<ABABAB>C#D#<"
470 PLAY "G#AG#AG#AB>C#<F#G#F#G#F#"
480 PLAY "G#F#G#F#G#F#D#<B>MLB>C#D#E8D#8E8C#8"
490 PLAY "<MSB>C#<B>C#<B>C#D#E<ABABAB>"
500 PLAY "C#D#<G#AG#AG#AB>C#<F#G#F#"
510 PLAY "G#F#AF#EMNE8P8MLC#2MN<CMS>GC#<C>D#"
520 PLAY "C#<BAAG#EC#C#C#C#C#ED#<C"
530 PLAY "G#G#G#G#G#G#>C#EG#>C#C#C#C#"
540 PLAY "C#<C>C#<C>D#C#<BAAG#EC#C#"
550 PLAY "C#C#C#ED#<CG#G#G#G#G#MNG#>C#"
560 PLAY "EG#>MNC#ED#C#D#<CG#G#G#>G#E"
570 PLAY "C#D#<CG#G#G#>G#EC#D#<BG#G#"
580 PLAY "A#GD#D#G#GG#GG#AG#F#E<"
590 PLAY "MLBA#BMN>E<B>F#<B>G#MLED#EMNG#EAF#B"
600 PLAY ">G#F#ED#F#EC#<B>C#<B>C#D#E"
610 PLAY "F#G#<ABAB>C#D#EF#<G#AG#"
620 PLAY "AB>C#D#E<F#G#G#F#G#F#G#F#"
630 PLAY "G#F#D#<B>CC#FD#E<BA#B>E<"
640 PLAY "B>F#<B>G#ED#EG#EAF#B>G#"
650 PLAY "F#ED#F#EC#<B>C#<B>C#D#EF#"
660 PLAY "G#<ABA>C#D#EF#<G#AG#AB>"
670 PLAY "C#D#E<F#>C#<C#>C#D#C#<AF#MNE>MLEF#"
680 PLAY "G#AB>C#D#MNE8MSEEE8E8G#4.F#8E8D#8E8"
690 PLAY "C#8<B>C#<B>C#<B>C#D#E<ABAB"
700 PLAY "AB>C#D#<G#AG#AG#AB>C#<F#"
710 PLAY "G#F#G#F#G#F#G#F#G#F#D#<B>MLB>C#"
720 PLAY "D#MNE8MSEEE8E8G#4.MSF#8E8D#8E8C#8"
730 PLAY "<B>C#<B>C#<B>C#D#E<ABABAB>"
740 PLAY "C#D#<G#AG#AG#AB>C#<F#G#F#"
750 PLAY "G#F#AG#F#E8<B8>E8G#G#G#8MNG#G#"
760 PLAY "G#8G#G#G#8>C#8<G#8>C#8<G#8>C#8<G#8"
770 PLAY "F#8E8D#8C#8G#G#G#8G#G#G#8G#G#G#8>C#8"
780 PLAY "<G#8>C#8<G#8>C#8<B8A#8B8A#8B8G#G#G#8"
790 PLAY "G#G#G#8G#G#G#8>C#8<G#8>C#8<G#8>C#8<"
800 PLAY "G#8F#8E8D#8C#8G#G#G#8G#G#G#8G#G#G#8"
810 PLAY ">C#8<G#8>C#8<G#8>"
820 PLAY "C#8<B8A#8B8A#8B8<F#F#F#8F#F#F#8G#8"
830 PLAY "A8F#4A8G#8E4G#8F#8<<B8>B8>F#F#F#8"
840 PLAY "F#F#F#8G#8A8F#4A8G#8E4G#8F#8BBB8<B"
850 PLAY "BB8BBB8BB>E8F#8G#8<BBB8"
860 PLAY "BB>E8G#G#F#8D#8<B8BBB8BB"
870 PLAY "B8BB>E8F#8G#8EG#MLB4.MNAG#F#E9<"
880 PLAY "B8>E8>BBB8BBB8BB>E8F#8G#8<"
890 PLAY "BBB8BB>E8G#G#F#8D#8<B8BB"
900 PLAY "B8BBB8BB>E8F#8G#8<EG#MLB2MNA"
910 PLAY "G#F#MLEF#G#MNAMLG#AB>MNC#ML<B>C#D#MN"
920 PLAY "EMLD#EF#MNG#A<B>A<B>A<B>A<B>A<B>A<B"
930 PLAY ">A<BMLEF#G#MNAMLG#ABMN>C#ML<B>C#D#MN"
940 PLAY "EMLD#EF#MNG#A<B>A<B>A<B>A<B>A<B>A<B"
950 PLAY ">A<B>A<BP16MLG#>G#<MNG#P16MLD#>D#<"
960 PLAY "MND#P16MLE>E<MNEP16MLA>A<MNAP16MLG#"
970 PLAY ">G#<MNG#P16MLD#>D#<MND#P16MLE>E<MNE"
980 PLAY "P16MLA>A<MNA>G<G>G<G>"
990 PLAY "G<G>G<G>MSG8E8C8E8MNG#<G#>G#<G#>G#<"
1000 PLAY "G#>G#<G#>MSG#8E8<B8>E8MNG#<G#>G#<"
1010 PLAY "G#>G#<G#>G#<G#>MSG#8F8C#8F8MLA#<A#"
1020 PLAY ">A#<A#>A#<A#>A#<A#>MSA#8G8E8G8B2MN"
1030 PLAY "A#P16AP16G#P16F#P16EP16D#P16C#P16<"
1040 PLAY "BP16A#P16AP16G#P16F#P16EP16D#P16F#"
1050 PLAY "MLEF#G#MNAMLG#ABMN>C#<MLB>C#D#MNEML"
1060 PLAY "D#EF#MNG#A<B>A<B>A<B>A<B>A<B>A<B>A<"
1070 PLAY "B>A<BMLEF#G#MNAMLG#ABMN>C#<MLB>C#D#"
1080 PLAY "MNEMLD#EF#MNG#A<B>A<B>A<B>A<B>A<B>A"
1090 PLAY "<B>A<B>A<BP16MLG#>G#<MNG#P16MLD#>D#"
1100 PLAY "<MND#P16MLE>E<MNEP16MLA>A<MNAP16ML"
1110 PLAY "G#>G#<MNG#P16MLD#>D#<MND#P16MLE>E<"
1120 PLAY "MNEP16MLA>A<MNA>G<G>G<G>G<G>"
1130 PLAY "G<G>G8E8C8E8G#<G#>G#<G#>G#<G#>G#<"
1140 PLAY "G#>G#8E8<B8>E8G#<G#>G#<G#>G#<G#>G#"
1150 PLAY "<G#>MSG#8MNF8C#8F8A#<A#>A#<A#>A#<A#"
1160 PLAY ">A#<A#>A#8G8E8G8B2A#P16AP16G#P16F#"
1170 PLAY "P16EP16D#P16C#P16<BP16A#P16AP16G#"
1180 PLAY "P16F#P16EP16D#P16FMLED#ED#MNE8BBB8"
1190 PLAY "BBB8BB>E8F#8G#8<BBB8BBB8BB>G#8A8B8"
1200 PLAY "P8E8F#8G#8P8<G#8A8B8P8P2<BC>C#DD#"
1210 PLAY "EFF#GG#AA#B>CC#D#ED#"
1220 PLAY "F#D#ED#F#D#ED#F#D#ED#F#"
1230 PLAY "D#ED#F#D#ED#F#D#ED#F#D#"
1240 PLAY "ED#F#D#E8E<E>E<E>E<E>E8<B"
1250 PLAY "<B>B<B>B<B>B8G#<G#>G#<G#>G#<G#>G#8"
1260 PLAY "E<E>E<E>E<E>E8EEE8E8E8<B"
1270 PLAY "BB8B8B8G#G#G#8G#8G#8EEE8E8"
1280 PLAY "E8<B8>E8<B8>G#8E8B8G#8>E8<B8>E8<B8"
1290 PLAY ">G#8E8B8G#8>E4P8EEE8"
1300 PLAY "E8E8E8E4P8.EE4P8.<<EE1P4"
1310 COLOR 7, 0: CLS

