WIDTH 40: CLS : COLOR 13: RANDOMIZE TIMER

FOR I = 1 TO 29:
    READ S$: LOCATE 13, 13: PRINT "SOUND #"; I: PLAY S$: SLEEP 1
NEXT I

DATA T120L16MLO3BF#
DATA T255L64MLO4BAGFEDC<BAGFEDEC<BAGFEDC<BAGFEDC<BAGFEDC
DATA T255L32O4mlDGD<G>DGDDGDGBAGF#EE
DATA T255L64MLO2BCADGEFEGDACBCADGEFEGDACB
DATA T255L64MLO3BCADGEFEGDACBCADGEFEGDACB
DATA T255L64MLO4BCADGEFEGDACBCADGEFEGDACB
DATA T255L64MLO5BCADGEFEGDACBCADGEFEGDACB
DATA T150L64MSO4BGEC<AFL16D
DATA T150L64MSO4BFC<GD<AL16E
DATA T150L64MSO4BE<AD<GC<L32F
DATA T150L64MSO3DFA>CEGL16B
DATA T120L64MSO2E.A.>D.G.>C.F.B.
DATA T150L64MSO0F>CG>DA>EB.
DATA T240L64MLO4EGEGEGCFCFCFGEGEGE
DATA T255L64O4CDEFGABO3CDEFGABO2CDEFGAB
DATA T255L64MLO1BAGFEDC<BAGFEDCP16>CDEFGAB>CDEFGABP32
DATA T255L64MLO2BAGFEDC<BAGFEDCP16>CDEFGAB>CDEFGABP32
DATA T255L64MLO3BAGFEDC<BAGFEDCP16>CDEFGAB>CDEFGABP32
DATA T255L64MLO4BAGFEDC<BAGFEDCP16>CDEFGAB>CDEFGABP32
DATA T255L64MLO1CDEFGAB>CDEFGABP16<BAGFEDC<BAGFEDCP32
DATA T255L64MLO2CDEFGAB>CDEFGABP16<BAGFEDC<BAGFEDCP32
DATA T255L64MLO3CDEFGAB>CDEFGABP16<BAGFEDC<BAGFEDCP32
DATA T255L64MLO4CDEFGAB>CDEFGABP16<BAGFEDC<BAGFEDCP32
DATA T120L16O4C#.P16T255L64mlC#DD#EFF#GG#AA#BO5CC#DD#EF
DATA T255L32mlO3CD<CD>>CD<<CD>>CD<<CD>CD
DATA T240L64MLO4EGEGEGEGEGEGEGEGEGEGEGEGEGEGEG
DATA O4T255L64MLB-BB-BAGAG.>EGG>EGG
DATA T200L64MLO4C#DD#EFF#GG#AA#B>CC#DD#EFP8.<C#DD#EFF#GG#AA#B>CC#DD#EFFED#DC#C<BA#AG#GGF#FED#DC#
DATA T255L64MsO4C#DD#EFF#GG#AA#B>CC#DD#EF

